PathFileType	4	(X/Y/Z)	s03c0402.trc
DataRate	CameraRate	NumFrames	NumMarkers	Units	OrigDataRate	OrigDataStartFrame	OrigNumFrames
200	200	4	50	mm	200	1750	2000
Frame#	Time	racr			lacr			c7			jug			rlel			rdr			llel			ldr			s2			lic			ric			lasi			rasi			rpsi			lpsi			rgt			lgt			rth1			rth2			rth3			rth4			rlfc			rmfc			rsh1			rsh2			rsh3			rsh4			rlmal			rcal			rtoe			rmt5			rmt1			lth1			lth2			lth4			lth3			llfc			lmfc			lsh1			lsh2			lsh3			lsh4			llmal			lcal			ltoe			lmt1			lmt5			SBIKE			LBIKE			RBIKE			
		X1	Y1	Z1	X2	Y2	Z2	X3	Y3	Z3	X4	Y4	Z4	X5	Y5	Z5	X6	Y6	Z6	X7	Y7	Z7	X8	Y8	Z8	X9	Y9	Z9	X10	Y10	Z10	X11	Y11	Z11	X12	Y12	Z12	X13	Y13	Z13	X14	Y14	Z14	X15	Y15	Z15	X16	Y16	Z16	X17	Y17	Z17	X18	Y18	Z18	X19	Y19	Z19	X20	Y20	Z20	X21	Y21	Z21	X22	Y22	Z22	X23	Y23	Z23	X24	Y24	Z24	X25	Y25	Z25	X26	Y26	Z26	X27	Y27	Z27	X28	Y28	Z28	X29	Y29	Z29	X30	Y30	Z30	X31	Y31	Z31	X32	Y32	Z32	X33	Y33	Z33	X34	Y34	Z34	X35	Y35	Z35	X36	Y36	Z36	X37	Y37	Z37	X38	Y38	Z38	X39	Y39	Z39	X40	Y40	Z40	X41	Y41	Z41	X42	Y42	Z42	X43	Y43	Z43	X44	Y44	Z44	X45	Y45	Z45	X46	Y46	Z46	X47	Y47	Z47	X48	Y48	Z48	X49	Y49	Z49	X50	Y50	Z50	
1750	8.7500	677.008667	1466.761863	-29.096482	655.723176	1495.760761	-357.023086	617.811168	1559.083801	-182.194003	637.242577	1385.814553	-196.502390	579.737730	1202.277505	63.584112	737.892486	983.922542	-28.756731	607.338814	1240.409941	-479.500554	733.538048	972.027999	-452.762065	90.959775	1281.041575	-169.601753	258.454805	1305.283138	-359.076054	276.593809	1268.121248	4.272115	273.721259	1226.434184	-323.828307	293.035879	1193.214310	-49.484941	128.567307	1319.508548	-118.560916	126.285473	1332.366380	-194.984747	189.501773	1156.743267	4.250507	195.996565	1233.467053	-382.754298	210.418598	1001.678667	12.798757	248.426780	921.723999	4.222344	244.965206	837.688852	-14.121649	283.695817	930.123242	-2.864261	253.441745	718.033648	-57.967586	265.544554	705.892054	-169.432251	203.811189	555.837474	-33.785150	208.767465	467.479396	-47.185808	167.993793	389.193645	-52.507561	238.749673	464.137959	-72.215826	130.294338	262.567524	-79.624071	63.114869	238.188374	-113.574425	359.735093	143.037810	-118.186067	241.641948	163.235755	-46.780443	270.644879	173.328695	-159.852521	280.341851	1141.539122	-447.257473	355.269427	1107.828156	-475.415199	381.388159	1131.409413	-463.530733	402.421641	1036.337756	-501.852268	505.722999	946.745502	-524.591173	535.349914	919.857197	-398.857864	377.297155	829.739081	-517.321657	337.344699	759.253182	-487.658230	260.585113	717.422012	-464.952734	364.180826	738.556680	-468.752882	173.648012	629.795856	-426.631035	99.610519	617.686286	-372.976565	374.738712	482.147079	-363.547629	287.863236	519.110790	-323.237556	257.239802	504.520842	-439.090905	-220.283419	944.016000	-236.610861	-14.346370	80.702616	-437.337499	-14.374324	80.652004	-36.998488	
1751	8.7550	676.066659	1467.036074	-29.197958	654.736877	1496.018730	-357.110239	616.915023	1559.467530	-182.231988	636.315005	1386.330633	-196.582761	579.577808	1202.448019	63.231269	737.927604	983.958391	-28.822644	607.210947	1240.474101	-479.232320	733.597359	972.046457	-452.797079	89.871709	1281.426822	-169.191104	257.142875	1306.061757	-358.871114	276.560627	1268.255794	4.427540	272.605082	1227.132905	-323.738025	292.359411	1193.341882	-49.636372	127.659487	1319.859230	-118.106867	125.412312	1332.719413	-194.922954	188.758874	1156.903679	4.236644	194.964810	1234.251392	-382.627750	209.668182	1001.945757	12.699693	247.743293	922.001096	4.100107	244.269545	837.948798	-14.259196	282.872528	930.503399	-3.119562	252.743385	718.361760	-58.060580	264.662290	706.314632	-169.611166	203.204086	556.211055	-33.901307	208.246205	467.859243	-47.186506	167.662494	389.461649	-52.557183	238.277820	464.474580	-72.267710	130.207725	262.740483	-79.705907	63.040572	238.524957	-113.632899	359.477488	142.876108	-118.194315	241.404659	163.257299	-46.803457	270.469966	173.325618	-159.821362	279.504657	1142.208874	-447.202435	354.456242	1108.697438	-475.519418	380.270273	1131.755454	-461.796536	401.616883	1037.194862	-502.044109	505.059908	947.654924	-524.423756	534.638670	920.637467	-398.621989	376.865117	830.211705	-517.180939	337.109024	759.591726	-487.591974	260.422742	717.581964	-464.902050	363.993096	738.934698	-468.810461	173.718395	629.729633	-426.638551	99.738554	617.508287	-372.979021	375.054250	482.290297	-363.532470	288.120967	519.142312	-323.211167	257.485279	504.567114	-439.124370	-220.279041	944.019179	-236.602587	-14.343026	80.703338	-437.360750	-14.364837	80.648515	-36.997847	
1752	8.7600	675.085462	1467.391454	-29.346240	653.789490	1496.254134	-357.195124	615.994347	1559.865211	-182.265485	635.412730	1386.819431	-196.640132	579.373273	1202.547798	62.917072	737.956528	983.981582	-28.861143	607.095313	1240.513318	-478.953871	733.632144	972.045537	-452.797548	88.895790	1281.928872	-168.721678	255.805955	1306.885233	-358.628506	275.421437	1268.359826	4.309115	271.479937	1227.765768	-323.807965	291.728927	1193.542499	-49.751360	126.738142	1320.157644	-117.609853	124.143633	1333.022704	-199.837953	187.992037	1157.029348	4.198300	193.868767	1235.002186	-382.513365	208.865819	1002.169113	12.543242	246.971756	922.152230	3.880455	243.486838	838.182219	-14.424026	282.187529	930.758478	-3.285670	251.987533	718.634519	-58.198678	263.873759	706.595379	-169.765512	202.531286	556.583207	-33.944465	207.720655	468.169776	-47.233938	167.239689	389.733721	-52.579155	237.815078	464.825239	-72.189999	130.087458	262.860608	-79.800244	62.937991	238.862862	-113.667218	359.177857	142.633142	-118.181056	241.169377	163.277790	-46.822742	270.206969	173.373006	-159.862041	278.636246	1142.898633	-447.209976	353.600326	1109.434983	-475.474172	379.391859	1132.419871	-461.721777	400.899982	1037.857508	-501.717964	504.388948	948.360239	-524.325582	533.830615	921.410351	-398.599608	376.411268	830.661879	-517.054007	336.781179	760.041415	-487.495170	260.243439	717.743939	-464.842557	363.791507	739.277680	-468.891029	173.793696	629.613283	-426.655901	99.860738	617.237669	-372.924215	375.378923	482.439619	-363.502110	288.375198	519.169060	-323.209289	257.790479	504.557519	-439.122090	-220.275084	944.015941	-236.610661	-14.342967	80.706179	-437.342308	-14.369768	80.638846	-37.004855	
1753	8.7650	674.199762	1467.710723	-29.446062	652.747948	1496.496212	-357.269746	615.088426	1560.231659	-182.266334	634.451414	1387.216837	-196.769040	579.193880	1202.654024	62.661088	737.980705	983.987987	-28.869153	606.973193	1240.545462	-478.613647	733.663764	972.048318	-452.793331	88.153042	1282.278187	-168.453552	254.450740	1307.656914	-358.390619	274.885878	1268.422907	4.335986	270.351484	1228.486002	-323.714105	291.046275	1193.731821	-49.950626	125.834174	1320.496094	-117.052186	123.318195	1333.490066	-199.371115	187.265581	1157.145627	4.221991	192.781056	1235.731873	-382.321345	208.044864	1002.377054	12.435784	246.195478	922.376572	3.679404	242.740602	838.373852	-14.563388	281.306367	930.956494	-3.588207	251.201292	718.930232	-58.313285	263.023311	706.831565	-169.935721	201.709619	556.882152	-34.089939	207.185105	468.428714	-47.321991	166.792919	389.945198	-52.603158	237.320717	465.204449	-72.075826	129.906658	263.052200	-79.822773	62.796767	239.243197	-113.675568	358.806228	142.369617	-118.196990	240.862163	163.342634	-46.813936	269.935761	173.376324	-159.866872	277.694897	1143.531202	-447.225152	352.753342	1110.104028	-475.431224	378.475683	1133.162430	-461.675448	400.065762	1038.582945	-501.660332	503.683910	949.209145	-524.238103	533.062953	922.002885	-398.484806	375.872747	831.215970	-516.991319	336.439381	760.312267	-487.414036	260.104735	717.763345	-464.576280	363.538545	739.743888	-468.941770	173.848178	629.505635	-426.653727	99.991510	616.953977	-372.939568	375.782714	482.478293	-363.135179	288.623358	519.228331	-323.178161	258.119856	504.548886	-439.102651	-220.269895	944.004098	-236.626163	-14.348337	80.682633	-437.360659	-14.369827	80.635645	-37.013939	
